<?xml version="1.0" encoding="UTF-8"?>
<svg version="1.1" xmlns="http://www.w3.org/2000/svg" width="398" height="332">
<path d="M0 0 C131.34 0 262.68 0 398 0 C398 109.56 398 219.12 398 332 C266.66 332 135.32 332 0 332 C0 222.44 0 112.88 0 0 Z " fill="#FF8800" transform="translate(0,0)"/>
<path d="M0 0 C3.375 1.875 3.375 1.875 4.9609375 2.8671875 C7.15570889 4.08650494 9.42143358 5.01923206 11.73339844 5.99121094 C17.05914989 8.361526 22.23193521 11.06626803 27.4375 13.6875 C29.21192062 14.57813206 30.98634139 15.4687638 32.76083374 16.35925293 C34.59360963 17.27929653 36.42597011 18.20016384 38.25830078 19.12109375 C44.05549132 22.03357145 49.85972818 24.93196006 55.66311646 27.83206177 C60.1767745 30.08791821 64.68989801 32.34484384 69.203125 34.6015625 C71.19270629 35.59635826 73.18228964 36.59114988 75.171875 37.5859375 C87.375 43.6875 87.375 43.6875 90.38171387 45.19110107 C92.32326595 46.16171624 94.26507307 47.13182146 96.20715332 48.10137939 C100.12794706 50.05935164 104.04742687 52.01895723 107.95117188 54.01074219 C109.01400391 54.55118164 110.07683594 55.09162109 111.171875 55.6484375 C112.03393555 56.09106934 112.89599609 56.53370117 113.78417969 56.98974609 C115.86335145 57.93769814 117.78448394 58.48006308 120 59 C120.04627253 69.52652818 120.08184327 80.0530323 120.10362434 90.57964134 C120.1140764 95.46719318 120.12826144 100.35467561 120.15087891 105.2421875 C120.17255671 109.95596629 120.1845579 114.66967818 120.18975449 119.38350296 C120.19345937 121.18490274 120.20069374 122.98629872 120.21146011 124.78767014 C120.22590787 127.30432901 120.22798078 129.82070889 120.22705078 132.33740234 C120.23424133 133.08762161 120.24143188 133.83784088 120.24884033 134.61079407 C120.22810432 139.77189568 120.22810432 139.77189568 118 142 C115.87695312 142.27124023 115.87695312 142.27124023 113.28125 142.30859375 C112.34925781 142.33373047 111.41726563 142.35886719 110.45703125 142.38476562 C108.48574286 142.4199207 106.51438096 142.45117107 104.54296875 142.47851562 C103.61097656 142.50494141 102.67898438 142.53136719 101.71875 142.55859375 C100.43387695 142.57877563 100.43387695 142.57877563 99.12304688 142.59936523 C98.07213867 142.79767944 98.07213867 142.79767944 97 143 C96.34 143.99 95.68 144.98 95 146 C113.00521498 147.67421123 113.00521498 147.67421123 129.16015625 141.6640625 C132.38228214 138.58895946 135.18907009 135.23593695 137.74267578 131.58813477 C139 130 139 130 142 128 C144.6875 128.375 144.6875 128.375 147 129 C146.51005641 133.43282299 145.14051483 135.33131181 141.9375 138.375 C140.72707031 139.53322266 140.72707031 139.53322266 139.4921875 140.71484375 C136.57728629 143.387598 133.63548495 146.02058559 130.62890625 148.58984375 C129.37392427 149.67629098 128.17374345 150.82625655 127 152 C123.99916572 152.16070165 121.08175482 152.20408221 118.08203125 152.16796875 C116.25194793 152.17364931 114.42186884 152.18085992 112.59179688 152.18945312 C109.70576783 152.19361908 106.82115965 152.1875992 103.93530273 152.15454102 C101.14988428 152.12751669 98.36742319 152.14448812 95.58203125 152.16796875 C94.72760941 152.14743942 93.87318756 152.1269101 92.99287415 152.10575867 C85.29598213 152.22904875 85.21090152 153.78909848 79 160 C94.84 160.33 110.68 160.66 127 161 C127.33 162.65 127.66 164.3 128 166 C127 167 127 167 125.20933533 167.12025452 C124.42990067 167.11803391 123.650466 167.11581329 122.84741211 167.11352539 C121.96657455 167.11344986 121.085737 167.11337433 120.1782074 167.11329651 C119.22092239 167.10813522 118.26363739 167.10297394 117.27734375 167.09765625 C116.30213272 167.0962413 115.32692169 167.09482635 114.32215881 167.09336853 C111.19390857 167.08775133 108.06572877 167.07519593 104.9375 167.0625 C102.82226666 167.05748722 100.70703219 167.05292393 98.59179688 167.04882812 C93.39450704 167.03777631 88.19725855 167.02102146 83 167 C83.763125 167.763125 84.52625 168.52625 85.3125 169.3125 C88 172 88 172 89.31420898 173.82006836 C92.21609757 175.85118024 95.58704809 175.10568749 98.97265625 174.87890625 C128.77169576 173.6953819 128.77169576 173.6953819 138.15209961 182.25756836 C145.34511342 190.10218731 145.34511342 190.10218731 147 194 C146.65649414 196.77441406 146.65649414 196.77441406 146 199 C142.10783623 198.88250072 140.30092985 197.56331149 137.6953125 194.875 C135.88746696 192.94343877 134.11273496 190.98630628 132.34765625 189.015625 C131.76113281 188.39171875 131.17460937 187.7678125 130.5703125 187.125 C130.05227051 186.55007812 129.53422852 185.97515625 129.00048828 185.3828125 C126.43179447 183.3872015 126.43179447 183.3872015 120 183 C120 208.74 120 234.48 120 261 C101 270 101 270 99 270 C99 270.66 99 271.32 99 272 C97.41800369 272.64910154 95.83434276 273.29414694 94.25 273.9375 C93.36828125 274.29714844 92.4865625 274.65679687 91.578125 275.02734375 C89.38813896 275.85356576 87.28101729 276.49369943 85 277 C85 277.66 85 278.32 85 279 C84.42822021 279.21188965 83.85644043 279.4237793 83.26733398 279.64208984 C75.91811948 282.46326582 69.02201407 285.95969236 62.0625 289.625 C60.87387625 290.24545223 59.68498963 290.8654011 58.49584961 291.48486328 C53.03090561 294.33602945 47.5823957 297.21624189 42.15625 300.140625 C40.85288696 300.83937744 40.85288696 300.83937744 39.52319336 301.55224609 C37.92353739 302.41214648 36.32774254 303.27928242 34.73657227 304.15478516 C31.15536553 306.08007721 29.14753519 307 25 307 C25 307.66 25 308.32 25 309 C23.7934375 309.53109375 22.586875 310.0621875 21.34375 310.609375 C19.72912189 311.32281533 18.11454108 312.03636272 16.5 312.75 C15.70851562 313.09804688 14.91703125 313.44609375 14.1015625 313.8046875 C13.31523437 314.15273438 12.52890625 314.50078125 11.71875 314.859375 C10.92726562 315.20806641 10.13578125 315.55675781 9.3203125 315.91601562 C6.48525929 317.2404723 3.78402668 318.76532782 1.09960938 320.37207031 C-4.10999026 321.93010406 -9.23458646 319.6931154 -13.86499023 317.35131836 C-14.97402206 316.79661362 -16.08305389 316.24190887 -17.22569275 315.6703949 C-18.4200929 315.0604066 -19.61439053 314.45021752 -20.80859375 313.83984375 C-22.06018934 313.20936867 -23.31223811 312.57979251 -24.56471252 311.95106506 C-27.85919717 310.29430845 -31.14751737 308.62566802 -34.43463135 306.9543457 C-37.72566665 305.28350468 -41.02218446 303.62356262 -44.31835938 301.96289062 C-49.36177306 299.42048224 -54.40242926 296.87270416 -59.44067383 294.32006836 C-66.94648553 290.51846308 -74.46855598 286.75049165 -82 283 C-88.36622642 279.82791443 -94.7318509 276.65462655 -101.09643555 273.47924805 C-103.01699089 272.52152847 -104.93789891 271.56451585 -106.85913086 270.6081543 C-109.66612881 269.21067183 -112.47185988 267.81067524 -115.27734375 266.41015625 C-116.14068832 265.98106461 -117.0040329 265.55197296 -117.89353943 265.10987854 C-118.68269241 264.71533981 -119.4718454 264.32080109 -120.28491211 263.91430664 C-120.98055771 263.56759415 -121.67620331 263.22088165 -122.39292908 262.86366272 C-124 262 -124 262 -125 261 C-125.09498646 258.56603981 -125.12558417 256.16057048 -125.11352539 253.72631836 C-125.11367142 252.96539383 -125.11381744 252.2044693 -125.1139679 251.42048645 C-125.11326862 248.89357702 -125.10547555 246.36674038 -125.09765625 243.83984375 C-125.09579212 242.0924941 -125.0943682 240.34514393 -125.09336853 238.59779358 C-125.08954293 233.98968066 -125.07971229 229.38159905 -125.06866455 224.77349854 C-125.05845134 220.07491479 -125.0538711 215.37632601 -125.04882812 210.67773438 C-125.03809005 201.45180913 -125.02101313 192.22590716 -125 183 C-131.30095486 183.72375977 -131.30095486 183.72375977 -136.04296875 187.6328125 C-136.72423828 188.35597656 -137.40550781 189.07914063 -138.10742188 189.82421875 C-138.79384766 190.58347656 -139.48027344 191.34273437 -140.1875 192.125 C-141.56492713 193.63851642 -142.95376466 195.14175144 -144.35546875 196.6328125 C-144.96028076 197.30199707 -145.56509277 197.97118164 -146.18823242 198.66064453 C-148 200 -148 200 -150.2277832 199.71044922 C-150.81261475 199.47600098 -151.39744629 199.24155273 -152 199 C-152.28931097 195.98718667 -152.35480566 194.48954953 -150.54711914 191.99536133 C-149.88317139 191.3639624 -149.21922363 190.73256348 -148.53515625 190.08203125 C-147.81779297 189.38529297 -147.10042969 188.68855469 -146.36132812 187.97070312 C-145.60271484 187.25849609 -144.84410156 186.54628906 -144.0625 185.8125 C-142.57236218 184.38344383 -141.08398997 182.95254358 -139.59765625 181.51953125 C-138.60004272 180.57750854 -138.60004272 180.57750854 -137.58227539 179.61645508 C-135.90790511 178.07087126 -135.90790511 178.07087126 -135 176 C-133.33614258 176.00169189 -133.33614258 176.00169189 -131.63867188 176.00341797 C-127.49330462 175.99972588 -123.34908778 175.95674386 -119.20410156 175.90234375 C-117.41576586 175.88426018 -115.62729131 175.8766013 -113.83886719 175.87988281 C-111.25608495 175.88276217 -108.67613707 175.84722307 -106.09375 175.8046875 C-104.90888 175.8183284 -104.90888 175.8183284 -103.70007324 175.83224487 C-96.46781467 175.64608253 -95.59720794 173.94790596 -89 169 C-103.19 168.67 -117.38 168.34 -132 168 C-132.33 166.02 -132.66 164.04 -133 162 C-132 161 -132 161 -130.01951599 160.87974548 C-129.15125687 160.88196609 -128.28299774 160.88418671 -127.38842773 160.88647461 C-126.40748642 160.88655014 -125.4265451 160.88662567 -124.4158783 160.88670349 C-123.3492244 160.89186478 -122.2825705 160.89702606 -121.18359375 160.90234375 C-119.55430687 160.90446617 -119.55430687 160.90446617 -117.8921051 160.90663147 C-114.40720925 160.91224952 -110.92237658 160.92480508 -107.4375 160.9375 C-105.08138113 160.94251267 -102.72526126 160.94707598 -100.36914062 160.95117188 C-94.57940536 160.96222481 -88.78970719 160.97898049 -83 161 C-83 160.34 -83 159.68 -83 159 C-83.86625 158.62875 -83.86625 158.62875 -84.75 158.25 C-87 157 -87 157 -88.57324219 154.94458008 C-92.22773833 152.01620364 -95.53214624 152.52598751 -100.078125 152.63671875 C-101.89713553 152.63685323 -103.71614626 152.63617644 -105.53515625 152.63476562 C-108.39020732 152.65559647 -111.24439729 152.68740542 -114.09912109 152.7355957 C-132.11628559 152.989952 -132.11628559 152.989952 -136.890625 148.83984375 C-137.96259015 147.5894825 -139.00168375 146.30991496 -140 145 C-141.11823771 143.93735377 -142.25341923 142.89220155 -143.40625 141.8671875 C-144.43991012 140.87228963 -145.47120391 139.87492681 -146.5 138.875 C-147.03625 138.37613281 -147.5725 137.87726563 -148.125 137.36328125 C-150.57363331 134.97086656 -151.9286518 133.59510888 -152.34375 130.1328125 C-152.2303125 129.42898437 -152.116875 128.72515625 -152 128 C-149.69482422 127.76977539 -149.69482422 127.76977539 -147 128 C-145.36376953 129.54467773 -145.36376953 129.54467773 -143.8828125 131.68359375 C-138.39774413 138.75010438 -133.4655575 144.95747528 -124.10845947 146.17131042 C-115.7580145 146.88124368 -107.34995537 146.57692327 -99 146 C-99 145.34 -99 144.68 -99 144 C-101.86204246 143.04598585 -103.83536327 142.83769254 -106.81640625 142.75390625 C-108.20956055 142.70459961 -108.20956055 142.70459961 -109.63085938 142.65429688 C-111.58907082 142.59298046 -113.54741285 142.5357041 -115.50585938 142.48242188 C-116.43333984 142.44826172 -117.36082031 142.41410156 -118.31640625 142.37890625 C-119.59173218 142.34132202 -119.59173218 142.34132202 -120.89282227 142.30297852 C-123 142 -123 142 -125 140 C-125.18784482 137.44008098 -125.25189805 134.9893036 -125.22705078 132.42919922 C-125.22734283 131.64862152 -125.22763489 130.86804382 -125.22793579 130.06381226 C-125.22653968 127.47732522 -125.21096542 124.89112436 -125.1953125 122.3046875 C-125.19158337 120.51392779 -125.18873592 118.72316604 -125.18673706 116.93240356 C-125.17909275 112.21411528 -125.15943745 107.49594969 -125.1373291 102.77770996 C-125.11688782 97.96510478 -125.10773903 93.15247981 -125.09765625 88.33984375 C-125.07619228 78.89317519 -125.04204675 69.44659779 -125 60 C-112.41078374 53.04780428 -99.77895453 46.23167576 -86.89331055 39.84375 C-84.66543963 38.73906138 -82.44093171 37.62781373 -80.21679688 36.515625 C-72.12320168 32.47913909 -63.98213638 28.56284195 -55.78811646 24.73460388 C-50.80136042 22.39740881 -45.90511233 19.93651469 -41.0625 17.3125 C-33.11126068 13.09165043 -25.13737559 8.9161829 -17.125 4.8125 C-16.00101807 4.22315674 -14.87703613 3.63381348 -13.71899414 3.02661133 C-12.12945923 2.21873169 -12.12945923 2.21873169 -10.5078125 1.39453125 C-9.09459717 0.66520386 -9.09459717 0.66520386 -7.65283203 -0.07885742 C-4.55984343 -1.15283552 -3.08546102 -0.9997352 0 0 Z " fill="#050505" transform="translate(200,5)"/>
<path d="M0 0 C2.21345233 1.02950441 4.40487832 2.1067384 6.58203125 3.2109375 C7.22475479 3.53508133 7.86747833 3.85922516 8.52967834 4.19319153 C9.9091843 4.88914778 11.28783598 5.58679946 12.66571045 6.28598022 C16.28169426 8.12029038 19.90433144 9.94133936 23.52734375 11.76171875 C24.25044739 12.12523941 24.97355103 12.48876007 25.71856689 12.86329651 C32.95460868 16.49322854 40.24792837 19.99844715 47.56567383 23.46044922 C53.42118777 26.23160719 59.20191719 29.10095859 65 32 C65 72.92 65 113.84 65 156 C52.7527693 162.44591089 40.52606289 168.75988857 28.0625 174.75 C25.82350128 175.82948684 23.58497519 176.90993808 21.34701538 177.99157715 C19.90644776 178.68674214 18.46476014 179.37959167 17.0218811 180.06994629 C13.80109981 181.61595155 10.62766213 183.19914427 7.47607422 184.88476562 C6.43080566 185.44357422 5.38553711 186.00238281 4.30859375 186.578125 C3.41841553 187.0721582 2.5282373 187.56619141 1.61108398 188.07519531 C-3.97036286 190.05205559 -8.94428743 187.32562778 -14 185 C-14 184.34 -14 183.68 -14 183 C-15.63207397 182.67237671 -15.63207397 182.67237671 -17.29711914 182.33813477 C-22.99799209 180.90535605 -28.0293197 178.24364821 -33.24609375 175.58984375 C-34.29781265 175.06234024 -35.34953156 174.53483673 -36.43312073 173.99134827 C-38.64275516 172.88134065 -40.85048533 171.76753506 -43.05639648 170.65014648 C-46.44706944 168.93265275 -49.84305975 167.22607636 -53.24023438 165.52148438 C-55.38833436 164.4407271 -57.53613179 163.35936823 -59.68359375 162.27734375 C-60.70327744 161.76380844 -61.72296112 161.25027313 -62.77354431 160.72117615 C-64.17619286 160.01022545 -64.17619286 160.01022545 -65.60717773 159.28491211 C-66.43354233 158.86680771 -67.25990692 158.44870331 -68.11131287 158.01792908 C-70 157 -70 157 -71 156 C-71.09600136 154.393108 -71.12187889 152.78198231 -71.12025452 151.17222595 C-71.12162918 150.12749619 -71.12300385 149.08276642 -71.12442017 148.00637817 C-71.12082489 146.85048187 -71.11722961 145.69458557 -71.11352539 144.50366211 C-71.11367142 143.29407333 -71.11381744 142.08448456 -71.1139679 140.83824158 C-71.11338893 137.51193649 -71.10835973 134.18569281 -71.10139394 130.8593986 C-71.09515978 127.38670071 -71.09455655 123.91400207 -71.09336853 120.44129944 C-71.0902554 113.86103807 -71.08204225 107.28079324 -71.07201904 100.70053917 C-71.06085734 93.21093888 -71.05534731 85.72133782 -71.05032361 78.2317313 C-71.03985962 62.82114461 -71.02226053 47.41057443 -71 32 C-70.45407479 31.74250095 -69.90814959 31.48500191 -69.34568119 31.21969986 C-66.84793876 30.04094111 -64.35084518 28.86081396 -61.85375977 27.68066406 C-60.99497475 27.27562653 -60.13618973 26.87058899 -59.25138092 26.45327759 C-53.40375977 23.68805743 -47.63128344 20.82097216 -41.9375 17.75 C-40.35963934 16.91226235 -38.78151707 16.07501724 -37.203125 15.23828125 C-34.73388414 13.92409639 -32.26539425 12.60850889 -29.796875 11.29296875 C-25.51420666 9.06828924 -21.90156666 7.38696579 -17 7 C-17 6.34 -17 5.68 -17 5 C-16.39671875 4.73445313 -15.7934375 4.46890625 -15.171875 4.1953125 C-13.97304687 3.66550781 -13.97304687 3.66550781 -12.75 3.125 C-11.96109375 2.77695313 -11.1721875 2.42890625 -10.359375 2.0703125 C-8.01310847 1.05454236 -8.01310847 1.05454236 -5.953125 -0.1953125 C-3.40717299 -1.24424473 -2.61534868 -0.85793031 0 0 Z " fill="#FFB700" transform="translate(200,71)"/>
<path d="M0 0 C0 0.66 0 1.32 0 2 C0.76957031 2.226875 1.53914063 2.45375 2.33203125 2.6875 C7.2852804 4.45990864 11.95191373 6.71670789 16.6875 9 C17.70626221 9.48911865 18.72502441 9.9782373 19.7746582 10.48217773 C26.92275413 13.93780593 33.97239319 17.54941792 40.97827148 21.28344727 C46.86202804 24.41682723 52.78932734 27.45304984 58.75 30.4375 C59.98302856 31.05733765 59.98302856 31.05733765 61.2409668 31.68969727 C65.77130768 33.94949724 70.34251879 36.01165535 75 38 C77.38358495 39.17017266 79.75809488 40.35894634 82.125 41.5625 C92.01756525 46.50878262 102.01416025 51.24483822 112 56 C112 80.09 112 104.18 112 129 C106.06 129.33 100.12 129.66 94 130 C89.92091523 132.33090559 88.06336404 133.72203953 85 137 C83.87492339 138.1223417 82.7456562 139.24049106 81.61328125 140.35546875 C79.25801847 142.6805073 76.93288076 145.03034557 74.625 147.40234375 C72 150 72 150 71 150 C70.67 129.54 70.34 109.08 70 88 C61.8325 83.91625 61.8325 83.91625 53.5 79.75 C40.02929688 73.01464844 40.02929688 73.01464844 38.02342224 72.01121521 C36.62035034 71.31002313 35.21671582 70.60995616 33.81263733 69.91078186 C33.1056218 69.55841965 32.39860626 69.20605743 31.67016602 68.84301758 C31.0359523 68.52738358 30.40173859 68.21174957 29.74830627 67.8865509 C26.38068702 66.17886048 23.10217269 64.30983522 19.80859375 62.46484375 C17.22441356 61.11704463 14.6028782 59.97695723 11.92259216 58.83781433 C8.74530395 57.45323696 5.63496739 55.93551567 2.51953125 54.41796875 C1.82542648 54.08130692 1.13132172 53.74464508 0.41618347 53.39778137 C-1.04558392 52.68838807 -2.50697911 51.97822733 -3.96801758 51.26733398 C-6.16337072 50.1992395 -8.35989638 49.13358937 -10.55664062 48.06835938 C-11.98968235 47.37259975 -13.42262608 46.67663822 -14.85546875 45.98046875 C-15.55517792 45.64054901 -16.25488708 45.30062927 -16.97579956 44.95040894 C-22.14176811 42.43404827 -27.27186108 39.85180905 -32.38012695 37.2199707 C-35.19769536 35.90794113 -38.03649771 34.92960388 -41 34 C-41 33.34 -41 32.68 -41 32 C-41.804375 31.9175 -42.60875 31.835 -43.4375 31.75 C-47.95934205 30.79803325 -51.84702701 28.98419821 -56 27 C-55 24 -55 24 -53.20361328 22.87182617 C-52.41712402 22.51580322 -51.63063477 22.15978027 -50.8203125 21.79296875 C-49.9236084 21.37756836 -49.0269043 20.96216797 -48.10302734 20.53417969 C-47.12027832 20.08977539 -46.1375293 19.64537109 -45.125 19.1875 C-38.20703524 15.99289492 -31.3615605 12.71866908 -24.640625 9.12890625 C-24.03310394 8.80589035 -23.42558289 8.48287445 -22.7996521 8.15007019 C-19.81524343 6.56098209 -16.84086016 4.95736709 -13.87548828 3.33276367 C-12.78993652 2.75373291 -11.70438477 2.17470215 -10.5859375 1.578125 C-9.6273584 1.05637695 -8.6687793 0.53462891 -7.68115234 -0.00292969 C-4.62327956 -1.14009527 -3.07710199 -0.94583339 0 0 Z " fill="#FF8800" transform="translate(201,12)"/>
<path d="M0 0 C0.66 0 1.32 0 2 0 C2.33 19.14 2.66 38.28 3 58 C7.2075 60.18625 11.415 62.3725 15.75 64.625 C17.0503418 65.30127441 18.35068359 65.97754883 19.69042969 66.67431641 C32.38081912 73.38745077 32.38081912 73.38745077 45.38671875 79.44067383 C49.11896867 81.05134141 52.73911046 82.83252391 56.359375 84.67578125 C64.20553094 88.63281656 72.12068763 92.42896403 80.07421875 96.16479492 C82.26462976 97.19437658 84.45267332 98.22887594 86.640625 99.26367188 C94.68175667 103.05417162 102.75020268 106.68128657 111 110 C111 110.66 111 111.32 111 112 C111.556875 112.17015625 112.11375 112.3403125 112.6875 112.515625 C118.09590609 114.23315937 122.98062896 116.35342255 128 119 C128 119.66 128 120.32 128 121 C126.34026693 121.82986654 124.68052613 122.65971764 123.02075195 123.48950195 C121.57905295 124.21043347 120.1374859 124.93162891 118.69604492 125.65307617 C115.13238653 127.43627495 111.5672409 129.21621512 107.99609375 130.984375 C107.37428223 131.2930249 106.7524707 131.6016748 106.11181641 131.91967773 C104.40462766 132.76678618 102.69648132 133.611964 100.98828125 134.45703125 C99.07342754 135.44574656 97.18688616 136.49265132 95.34375 137.609375 C93.28477052 138.83103616 91.44265672 139.67312057 89.1875 140.4375 C85.54714527 141.72192705 82.29168854 143.39051361 78.95703125 145.328125 C76.23999763 146.26091898 74.73796414 145.83806926 72 145 C70.01052576 144.01911716 68.0541978 142.96968476 66.125 141.875 C61.57080023 139.34742768 57.00667423 137.02310557 52.26513672 134.85888672 C42.9559064 130.56453231 33.79922491 125.97209794 24.6328125 121.3828125 C22.81824465 120.47586621 21.00361748 119.56903856 19.18893433 118.662323 C15.42169319 116.77943312 11.6551665 114.89512396 7.88916016 113.00976562 C3.05394772 110.58928314 -1.78308216 108.17245748 -6.62063408 105.75665474 C-10.35124404 103.89315002 -14.08090575 102.02775408 -17.81027603 100.16176987 C-19.59544623 99.26885086 -21.38091456 98.37652764 -23.1666832 97.48480606 C-25.64448158 96.24716892 -28.12099404 95.00699658 -30.59716797 93.76611328 C-31.70656738 93.21293175 -31.70656738 93.21293175 -32.83837891 92.64857483 C-37.88572502 90.11427498 -37.88572502 90.11427498 -39 89 C-39.09436529 86.76070114 -39.11742327 84.5183825 -39.11352539 82.27709961 C-39.11367142 81.5746965 -39.11381744 80.8722934 -39.1139679 80.14860535 C-39.11326872 77.81648722 -39.10547617 75.484448 -39.09765625 73.15234375 C-39.09579208 71.53951562 -39.09436818 69.92668693 -39.09336853 68.31385803 C-39.08954323 64.06084643 -39.07971285 59.80786876 -39.06866455 55.55487061 C-39.05845069 51.2182257 -39.05387096 46.88157533 -39.04882812 42.54492188 C-39.03809059 34.02993231 -39.02101403 25.51497037 -39 17 C-38.16681747 17.00905617 -38.16681747 17.00905617 -37.31680298 17.01829529 C-23.28256355 17.38845187 -23.28256355 17.38845187 -11.296875 11.03320312 C-10.66265625 10.38287109 -10.0284375 9.73253906 -9.375 9.0625 C-8.67117187 8.41603516 -7.96734375 7.76957031 -7.2421875 7.10351562 C-5.44779886 5.44198076 -3.71359148 3.74403889 -2 2 C-1.34 1.34 -0.68 0.68 0 0 Z " fill="#000000" transform="translate(121,173)"/>
<path d="M0 0 C7.3483885 0.33980987 13.26450149 3.76246016 19.75 7 C20.94910743 7.5898405 22.14873815 8.17861828 23.34887695 8.76635742 C25.75531224 9.94541529 28.15975486 11.12839601 30.56298828 12.31396484 C35.41555566 14.69440456 40.29783526 17.009466 45.1875 19.3125 C45.98833008 19.69083984 46.78916016 20.06917969 47.61425781 20.45898438 C49.40906882 21.30691391 51.20445629 22.15362312 53 23 C53 23.99 53 24.98 53 26 C52.21496094 26.38671875 51.42992187 26.7734375 50.62109375 27.171875 C43.9009405 30.468156 43.9009405 30.468156 37.375 34.125 C34.7918286 35.56009522 32.58558079 36.56474477 29.8515625 37.5703125 C21.94686514 40.68865289 14.5135726 44.80378907 7 48.75 C4.73526014 49.93839928 2.46981832 51.12532663 0.20166016 52.30718994 C-1.20043629 53.03780188 -2.60058349 53.77216955 -3.99853516 54.51068115 C-8.77474439 57 -8.77474439 57 -11 57 C-11 77.46 -11 97.92 -11 119 C-14.89135165 117.05432417 -16.78237226 115.39826579 -19.75 112.3125 C-23.53726348 108.42971207 -27.41303037 104.8185363 -31.6015625 101.375 C-32.06304687 100.92125 -32.52453125 100.4675 -33 100 C-33 99.34 -33 98.68 -33 98 C-39.27 98 -45.54 98 -52 98 C-52 74.57 -52 51.14 -52 27 C-45.73 23.7 -39.46 20.4 -33 17 C-31.06253906 15.95585938 -29.12507813 14.91171875 -27.12890625 13.8359375 C-26.35095703 13.41699219 -25.57300781 12.99804688 -24.77148438 12.56640625 C-23.23710656 11.73884615 -21.70607923 10.90505576 -20.17773438 10.06640625 C-19.41912109 9.66035156 -18.66050781 9.25429688 -17.87890625 8.8359375 C-17.2247876 8.48063965 -16.57066895 8.1253418 -15.89672852 7.75927734 C-14 7 -14 7 -10 7 C-10 6.34 -10 5.68 -10 5 C-6.27034861 2.96564469 -4.33094958 2 0 2 C0 1.34 0 0.68 0 0 Z " fill="#CFD0D3" transform="translate(134,42)"/>
<path d="M0 0 C4.73852679 3.55389509 9.37758913 7.05840788 13.9375 10.8125 C14.87464844 11.58207031 15.81179688 12.35164062 16.77734375 13.14453125 C19 15 19 15 20 16 C26.93 16.33 33.86 16.66 41 17 C41 40.76 41 64.52 41 89 C24.875 96.75 24.875 96.75 19.81982422 99.17089844 C18.48127414 99.81670262 17.14288462 100.46283975 15.8046875 101.109375 C15.122854 101.43437988 14.44102051 101.75938477 13.73852539 102.09423828 C9.585363 104.10707466 5.819484 106.38969413 2 109 C0.31486886 109.74255779 -1.39351658 110.43558359 -3.125 111.0625 C-5.81378606 112.03833669 -7.8505341 112.88660265 -10.13671875 114.62109375 C-12 116 -12 116 -14.6875 116 C-18.2652436 114.91992646 -21.01877206 113.37482129 -24.23046875 111.5 C-27.466616 109.74727709 -30.80227172 108.30766642 -34.1875 106.875 C-44.69248539 102.40312709 -54.82926397 97.17678088 -65 92 C-63.73285059 88.19855178 -61.9750783 87.67498975 -58.51757812 85.94140625 C-57.78990234 85.58949219 -57.06222656 85.23757813 -56.3125 84.875 C-55.24999023 84.33552734 -55.24999023 84.33552734 -54.16601562 83.78515625 C-50.11142009 81.7859374 -46.55459685 80.47339117 -42 80 C-42 79.34 -42 78.68 -42 78 C-40.37191406 77.31164062 -40.37191406 77.31164062 -38.7109375 76.609375 C-37.26549027 75.98989761 -35.82018528 75.37008825 -34.375 74.75 C-33.30572266 74.29947266 -33.30572266 74.29947266 -32.21484375 73.83984375 C-27.80463167 71.93819267 -23.96361529 69.74671586 -20 67 C-17.67638946 65.97761136 -15.34107439 64.98174087 -13 64 C-9.04 62.02 -5.08 60.04 -1 58 C-0.67 38.86 -0.34 19.72 0 0 Z " fill="#B9BBC1" transform="translate(272,173)"/>
<path d="M0 0 C4.19364119 -0.14590384 8.38662482 -0.23427701 12.58203125 -0.3125 C13.76607544 -0.35439453 14.95011963 -0.39628906 16.17004395 -0.43945312 C26.04241063 -0.57760064 26.04241063 -0.57760064 30.03491211 2.32788086 C32.73955182 5.05243509 34.87459679 7.80764439 37 11 C38.12441768 12.33089261 39.26849986 13.64559097 40.4375 14.9375 C40.97246094 15.56527344 41.50742188 16.19304687 42.05859375 16.83984375 C45.09634933 20.21988165 48.35403695 23.37430119 51.58642578 26.56689453 C55.02798291 29.98243674 58.27088284 33.50456942 61.41796875 37.1953125 C64.12504025 40.28337924 67.06889406 43.12699968 70 46 C71.65 47.65 73.3 49.3 75 51 C75 34.17 75 17.34 75 0 C75.66 0 76.32 0 77 0 C78.16013992 1.39899226 79.31590991 2.80184133 80.44921875 4.22265625 C82.68620728 6.78645922 85.23589969 8.91221165 87.83984375 11.09375 C88.55269531 11.7228125 89.26554687 12.351875 90 13 C91.02246826 13.75555176 92.04493652 14.51110352 93.09838867 15.28955078 C96.96527273 19.20737644 96.68184077 23.24210266 96.67977905 28.52279663 C96.64881134 29.76050812 96.61784363 30.9982196 96.5859375 32.2734375 C96.57744781 33.55231842 96.56895813 34.83119934 96.56021118 36.14883423 C96.53237292 39.53313512 96.47857189 42.91496727 96.4119873 46.29858398 C96.35037464 49.75743379 96.32315616 53.21653971 96.29296875 56.67578125 C96.22689012 63.45119845 96.12654027 70.22545683 96 77 C91.85539583 77.26380083 87.71296891 77.42199514 83.5625 77.5625 C82.39783203 77.63791016 81.23316406 77.71332031 80.03320312 77.79101562 C75.03758332 77.91766514 71.4424888 78.00645912 67.25390625 75.08398438 C64.98122763 72.8242187 62.97030987 70.52491958 61 68 C59.96236236 66.78820504 58.92149256 65.57915622 57.875 64.375 C57.05128906 63.41207031 57.05128906 63.41207031 56.2109375 62.4296875 C52.45665533 58.30395692 48.44829649 54.42940621 44.4855957 50.50512695 C40.6761186 46.71844687 37.01913752 42.8781072 33.55078125 38.7734375 C30.54932535 35.34104208 27.25410594 32.19043865 24 29 C23.01 28.01 22.02 27.02 21 26 C21 42.83 21 59.66 21 77 C17.01401458 75.00700729 14.24535356 72.64493596 11.0625 69.625 C10.03400426 68.65730841 9.00407291 67.69114021 7.97265625 66.7265625 C7.52156494 66.29939941 7.07047363 65.87223633 6.60571289 65.43212891 C4.91409392 63.85707272 4.91409392 63.85707272 2.43511963 62.28311157 C0 60 0 60 -0.60127258 57.2411499 C-0.59016953 56.18413879 -0.57906647 55.12712769 -0.56762695 54.03808594 C-0.5672493 52.83714294 -0.56687164 51.63619995 -0.56648254 50.39886475 C-0.54067612 49.10708313 -0.51486969 47.81530151 -0.48828125 46.484375 C-0.47895092 45.14489055 -0.47183584 43.80538899 -0.46684265 42.46588135 C-0.44778922 38.94731189 -0.39870564 35.42978125 -0.34332275 31.91162109 C-0.29209278 28.31882785 -0.2693208 24.72586604 -0.24414062 21.1328125 C-0.19058315 14.08811774 -0.10529231 7.04412683 0 0 Z " fill="#22242A" transform="translate(149,127)"/>
<path d="M0 0 C6.9463042 0.72586019 10.69574132 6.07730081 15.375 10.8125 C16.31472656 11.72837891 17.25445312 12.64425781 18.22265625 13.58789062 C19.10566406 14.47283203 19.98867188 15.35777344 20.8984375 16.26953125 C21.70974121 17.08010986 22.52104492 17.89068848 23.35693359 18.72583008 C25 21 25 21 24.99536133 23.02734375 C22.76089932 27.45571094 18.78828725 30.7226001 15.3125 34.1875 C14.50876953 35.01958984 13.70503906 35.85167969 12.87695312 36.70898438 C11.69456055 37.89524414 11.69456055 37.89524414 10.48828125 39.10546875 C9.77196533 39.82887451 9.05564941 40.55228027 8.31762695 41.29760742 C5.54210093 43.33634575 3.39250498 43.67990639 0 44 C-0.69458008 41.7355957 -0.69458008 41.7355957 -1 39 C0.23168945 37.05541992 0.23168945 37.05541992 2.11328125 35.23046875 C2.78423828 34.56982422 3.45519531 33.90917969 4.14648438 33.22851562 C4.86126953 32.55498047 5.57605469 31.88144531 6.3125 31.1875 C7.01568359 30.49462891 7.71886719 29.80175781 8.44335938 29.08789062 C13.6916564 24 13.6916564 24 16 24 C13.1031779 18.2928281 8.40851805 14.4205962 3.7421875 10.171875 C2.00147687 8.51061589 0.40443861 6.95460712 -1 5 C-0.921875 2.0625 -0.921875 2.0625 0 0 Z " fill="#292B30" transform="translate(35,146)"/>
<path d="M0 0 C0.47265625 2.5234375 0.47265625 2.5234375 0 6 C-2.21647669 8.8624735 -4.87530508 11.20965202 -7.5625 13.625 C-8.99137643 14.91773237 -10.40997317 16.22194792 -11.81640625 17.5390625 C-12.45006104 18.10834473 -13.08371582 18.67762695 -13.73657227 19.26416016 C-15.24193296 20.92960908 -15.24193296 20.92960908 -14.79907227 23.11157227 C-13.76290958 25.56030992 -12.4371115 26.64449862 -10.375 28.3125 C-9.66214844 28.91449219 -8.94929688 29.51648438 -8.21484375 30.13671875 C-7.48394531 30.75160156 -6.75304687 31.36648437 -6 32 C-0.92974655 36.37927968 -0.92974655 36.37927968 1 39 C0.9375 41.9375 0.9375 41.9375 0 44 C-3.33264663 44.3986863 -4.65870044 44.24779519 -7.41943359 42.2434082 C-10.08744638 39.61454589 -12.74776367 36.98223031 -15.375 34.3125 C-16.31472656 33.40048828 -17.25445312 32.48847656 -18.22265625 31.54882812 C-19.10566406 30.66259766 -19.98867188 29.77636719 -20.8984375 28.86328125 C-21.70974121 28.05157471 -22.52104492 27.23986816 -23.35693359 26.40356445 C-25 24 -25 24 -24.84545898 21.29589844 C-23.85761643 18.61334821 -22.93114674 17.67946176 -20.6875 15.9375 C-17.94858487 13.70872639 -15.38956343 11.42305144 -12.94140625 8.8828125 C-12.15020386 8.0630896 -12.15020386 8.0630896 -11.34301758 7.22680664 C-10.29228439 6.12905214 -9.24893698 5.02417375 -8.21362305 3.91186523 C-4.4388195 0 -4.4388195 0 0 0 Z " fill="#2A2B30" transform="translate(360,146)"/>
<path d="M0 0 C7.5394085 2.319818 14.43345831 5.60717832 21.265625 9.5078125 C25.57781822 11.86103794 29.9967839 14.00167479 34.41625977 16.14550781 C37.87208199 17.84339933 41.01387821 19.52819738 44 22 C42.68 23.65 41.36 25.3 40 27 C34.55546774 24.34944272 29.11113799 21.6984701 23.66699219 19.04711914 C21.81646134 18.14596434 19.96587604 17.24492134 18.11523438 16.34399414 C15.44907399 15.04603273 12.78311224 13.74766408 10.1171875 12.44921875 C9.29507782 12.0491008 8.47296814 11.64898285 7.62594604 11.23674011 C3.40557153 9.18069164 -0.80569975 7.10894844 -5 5 C-3.35 3.35 -1.7 1.7 0 0 Z " fill="#343438" transform="translate(205,67)"/>
<path d="M0 0 C1.2065625 0.0309375 1.2065625 0.0309375 2.4375 0.0625 C2.9325 2.0425 2.9325 2.0425 3.4375 4.0625 C0.43824658 5.64725045 -2.56204008 7.23003521 -5.5625 8.8125 C-6.40167969 9.2559375 -7.24085937 9.699375 -8.10546875 10.15625 C-8.93691406 10.59453125 -9.76835938 11.0328125 -10.625 11.484375 C-11.37910156 11.88237305 -12.13320312 12.28037109 -12.91015625 12.69042969 C-16.44229297 14.51762118 -20.0055779 16.28403895 -23.5625 18.0625 C-23.8925 24.6625 -24.2225 31.2625 -24.5625 38.0625 C-26.5425 38.5575 -26.5425 38.5575 -28.5625 39.0625 C-31.91940936 35.70559064 -30.97265688 31.24468602 -31 26.6875 C-31.03287109 25.7284375 -31.06574219 24.769375 -31.09960938 23.78125 C-31.15301179 16.80980721 -31.15301179 16.80980721 -28.73828125 13.75390625 C-23.96557885 11.21198726 -19.17785438 8.73576 -14.3125 6.375 C-12.3064842 5.39357581 -10.30123204 4.41058868 -8.296875 3.42578125 C-7.41225586 2.99563721 -6.52763672 2.56549316 -5.61621094 2.12231445 C-1.57817503 0.03849207 -1.57817503 0.03849207 0 0 Z " fill="#25262C" transform="translate(117.5625,58.9375)"/>
<path d="M0 0 C1.32 0.33 2.64 0.66 4 1 C4 7.27 4 13.54 4 20 C0.25021809 21.95875189 -3.49981583 23.91701854 -7.25 25.875 C-8.31347656 26.43058594 -9.37695312 26.98617188 -10.47265625 27.55859375 C-12.00986328 28.36103516 -12.00986328 28.36103516 -13.578125 29.1796875 C-14.52075195 29.67194824 -15.46337891 30.16420898 -16.43457031 30.67138672 C-17.28116211 31.1098291 -18.12775391 31.54827148 -19 32 C-19.68932617 32.38816895 -20.37865234 32.77633789 -21.08886719 33.17626953 C-23 34 -23 34 -27 34 C-27 32.35 -27 30.7 -27 29 C-23.41996191 27.18093671 -19.83543327 25.37090291 -16.25 23.5625 C-15.23421875 23.04623047 -14.2184375 22.52996094 -13.171875 21.99804688 C-12.1921875 21.50498047 -11.2125 21.01191406 -10.203125 20.50390625 C-9.30239258 20.04830322 -8.40166016 19.5927002 -7.47363281 19.12329102 C-5.29953643 18.13602123 -3.33074603 17.47804077 -1 17 C-1.01160156 15.85660156 -1.02320313 14.71320313 -1.03515625 13.53515625 C-1.04453288 12.04427246 -1.05363321 10.55338691 -1.0625 9.0625 C-1.07087891 8.30775391 -1.07925781 7.55300781 -1.08789062 6.77539062 C-1.09652441 4.85005687 -1.05224333 2.92464419 -1 1 C-0.67 0.67 -0.34 0.34 0 0 Z " fill="#272930" transform="translate(303,237)"/>
<path d="M0 0 C0.66 0.33 1.32 0.66 2 1 C1.51322375 1.39124967 1.02644751 1.78249933 0.52492046 2.18560505 C-1.48383267 4.57567825 -1.3829348 5.93180874 -1.39872742 9.03031921 C-1.41753464 10.58891663 -1.41753464 10.58891663 -1.4367218 12.17900085 C-1.43528671 13.31835587 -1.43385162 14.45771088 -1.43237305 15.6315918 C-1.4425647 16.83171906 -1.45275635 18.03184631 -1.46325684 19.26834106 C-1.48829528 22.55951068 -1.50011669 25.8502338 -1.50611091 29.14146018 C-1.515484 32.58085226 -1.54168646 36.02011473 -1.56611633 39.45942688 C-1.6098145 45.9722977 -1.63834099 52.48514342 -1.66143972 58.99811631 C-1.68847369 66.41287132 -1.73238624 73.82749616 -1.77772844 81.24215829 C-1.87062216 96.49470533 -1.94228114 111.74727686 -2 127 C-2.66 126.67 -3.32 126.34 -4 126 C-4 85.08 -4 44.16 -4 2 C-2.68 1.34 -1.36 0.68 0 0 Z " fill="#BCBEC2" transform="translate(133,101)"/>
<path d="M0 0 C1.32 0 2.64 0 4 0 C4 16.5 4 33 4 50 C2.35 49.67 0.7 49.34 -1 49 C-1.0252689 42.18238106 -1.04283244 35.36477411 -1.05493164 28.54711914 C-1.05997333 26.22582549 -1.06680651 23.90453503 -1.07543945 21.58325195 C-1.08751225 18.25471205 -1.09322979 14.92621398 -1.09765625 11.59765625 C-1.10281754 10.55287613 -1.10797882 9.50809601 -1.11329651 8.43165588 C-1.11337204 7.47073532 -1.11344757 6.50981476 -1.11352539 5.51977539 C-1.115746 4.66928116 -1.11796661 3.81878693 -1.12025452 2.94252014 C-1 1 -1 1 0 0 Z " fill="#2C2E35" transform="translate(88,195)"/>
<path d="M0 0 C1.98 0.495 1.98 0.495 4 1 C4 16.51 4 32.02 4 48 C2.35 47.67 0.7 47.34 -1 47 C-1.02527002 40.46721214 -1.04283292 33.93443679 -1.05493164 27.40161133 C-1.05997317 25.17732268 -1.06680623 22.95303737 -1.07543945 20.72875977 C-1.08751298 17.53921691 -1.09322996 14.34971771 -1.09765625 11.16015625 C-1.10281754 10.15912369 -1.10797882 9.15809113 -1.11329651 8.12672424 C-1.11337204 7.20584518 -1.11344757 6.28496613 -1.11352539 5.33618164 C-1.115746 4.52121719 -1.11796661 3.70625275 -1.12025452 2.86659241 C-1 1 -1 1 0 0 Z " fill="#191B21" transform="translate(303,89)"/>
<path d="M0 0 C1.2065625 0.0309375 1.2065625 0.0309375 2.4375 0.0625 C2.33984375 2.33203125 2.33984375 2.33203125 1.4375 5.0625 C-1.43359375 7.01171875 -1.43359375 7.01171875 -5 8.75 C-9.6232231 10.92895979 -9.6232231 10.92895979 -13.5625 14.0625 C-17.1875 14.1875 -17.1875 14.1875 -20.5625 14.0625 C-20.5625 12.4125 -20.5625 10.7625 -20.5625 9.0625 C-20.05275635 8.82539307 -19.5430127 8.58828613 -19.01782227 8.34399414 C-16.71915983 7.27324407 -14.42206706 6.19916805 -12.125 5.125 C-11.32255859 4.75181641 -10.52011719 4.37863281 -9.69335938 3.99414062 C-8.92958984 3.63642578 -8.16582031 3.27871094 -7.37890625 2.91015625 C-6.67193604 2.58023682 -5.96496582 2.25031738 -5.23657227 1.91040039 C-1.53883101 0.03753246 -1.53883101 0.03753246 0 0 Z " fill="#2C2E34" transform="translate(214.5625,296.9375)"/>
<path d="M0 0 C0 1.65 0 3.3 0 5 C-2.71997735 6.51712598 -5.45230314 8.01051422 -8.1875 9.5 C-8.95642578 9.92925781 -9.72535156 10.35851563 -10.51757812 10.80078125 C-17.60599841 14.63400424 -17.60599841 14.63400424 -22 14 C-22.01953125 11.80078125 -22.01953125 11.80078125 -21 9 C-18.43483808 7.00055692 -15.59585726 5.62375531 -12.6875 4.1875 C-11.52831055 3.57745117 -11.52831055 3.57745117 -10.34570312 2.95507812 C-6.48192333 0.97833782 -4.46311731 0 0 0 Z " fill="#2D2E32" transform="translate(200,19)"/>
<path d="M0 0 C1.26972656 0.00257813 2.53945313 0.00515625 3.84765625 0.0078125 C5.11480469 0.00523437 6.38195312 0.00265625 7.6875 0 C10.91015625 0.1328125 10.91015625 0.1328125 12.91015625 1.1328125 C12.95287725 2.79893155 12.95079457 4.46664135 12.91015625 6.1328125 C11.15455683 7.88841192 8.87433183 7.26503169 6.5390625 7.26953125 C5.83652344 7.26566406 5.13398438 7.26179687 4.41015625 7.2578125 C3.70761719 7.26167969 3.00507813 7.26554688 2.28125 7.26953125 C-2.96322997 7.25942628 -2.96322997 7.25942628 -4.08984375 6.1328125 C-4.21484375 3.6328125 -4.21484375 3.6328125 -4.08984375 1.1328125 C-3.08984375 0.1328125 -3.08984375 0.1328125 0 0 Z " fill="#4C4D4E" transform="translate(373.08984375,164.8671875)"/>
<path d="M0 0 C1.98 0 3.96 0 6 0 C6 6.27 6 12.54 6 19 C4.35 19 2.7 19 1 19 C0 18 0 18 -0.11352539 16.23413086 C-0.10828857 15.48526611 -0.10305176 14.73640137 -0.09765625 13.96484375 C-0.09443359 13.15595703 -0.09121094 12.34707031 -0.08789062 11.51367188 C-0.07951172 10.66353516 -0.07113281 9.81339844 -0.0625 8.9375 C-0.05798828 8.08349609 -0.05347656 7.22949219 -0.04882812 6.34960938 C-0.03700373 4.23304337 -0.01906769 2.11651315 0 0 Z " fill="#373A3F" transform="translate(87,108)"/>
<path d="M0 0 C0.33 1.32 0.66 2.64 1 4 C-1.7881022 5.5066972 -4.58103958 7.00419804 -7.375 8.5 C-8.1690625 8.92925781 -8.963125 9.35851562 -9.78125 9.80078125 C-10.54179688 10.20683594 -11.30234375 10.61289063 -12.0859375 11.03125 C-12.7876709 11.40830078 -13.4894043 11.78535156 -14.21240234 12.17382812 C-16 13 -16 13 -18 13 C-18 11.68 -18 10.36 -18 9 C-18.66 8.67 -19.32 8.34 -20 8 C-17.61072363 6.65359017 -15.2147427 5.32290947 -12.8125 4 C-12.13896484 3.6184375 -11.46542969 3.236875 -10.77148438 2.84375 C-7.04780378 0.8093489 -4.37134612 -0.54323525 0 0 Z " fill="#2C2D31" transform="translate(120,59)"/>
<path d="M0 0 C0.66 0 1.32 0 2 0 C2.9971257 2.99137711 3.09229826 4.81750993 3.02172852 7.93041992 C3.00163223 8.93123093 2.98153595 9.93204193 2.96083069 10.96318054 C2.93379562 12.04138565 2.90676056 13.11959076 2.87890625 14.23046875 C2.85529526 15.33602615 2.83168427 16.44158356 2.80735779 17.5806427 C2.73070304 21.11639183 2.64668612 24.65192295 2.5625 28.1875 C2.50928115 30.58267158 2.45654074 32.97785383 2.40429688 35.37304688 C2.27508539 41.2488332 2.13982681 47.12445723 2 53 C1.01 53 0.02 53 -1 53 C-0.67 35.51 -0.34 18.02 0 0 Z " fill="#595B60" transform="translate(224,127)"/>
<path d="M0 0 C1.76150391 -0.02126953 1.76150391 -0.02126953 3.55859375 -0.04296875 C6.5625 0.1875 6.5625 0.1875 8.5625 2.1875 C8.02678571 5.72321429 8.02678571 5.72321429 6.5625 7.1875 C4.41942104 7.31287741 2.27171114 7.36324364 0.125 7.375 C-1.04933594 7.38917969 -2.22367188 7.40335938 -3.43359375 7.41796875 C-6.4375 7.1875 -6.4375 7.1875 -8.4375 5.1875 C-7.56915129 -0.5436015 -5.42444382 0.0297067 0 0 Z " fill="#313234" transform="translate(17.4375,164.8125)"/>
<path d="M0 0 C1.32 0 2.64 0 4 0 C4 5.61 4 11.22 4 17 C2.35 16.67 0.7 16.34 -1 16 C-1.02685095 13.52076199 -1.04676547 11.0418116 -1.0625 8.5625 C-1.07506836 7.50192383 -1.07506836 7.50192383 -1.08789062 6.41992188 C-1.09653588 4.61306441 -1.05220011 2.80612397 -1 1 C-0.67 0.67 -0.34 0.34 0 0 Z " fill="#22272F" transform="translate(303,211)"/>
<path d="M0 0 C0.99 0.33 1.98 0.66 3 1 C2.67 1.99 2.34 2.98 2 4 C1.34 4 0.68 4 0 4 C0 17.86 0 31.72 0 46 C1.485 45.505 1.485 45.505 3 45 C3.33 45.99 3.66 46.98 4 48 C2.35 47.67 0.7 47.34 -1 47 C-1.02527002 40.46721214 -1.04283292 33.93443679 -1.05493164 27.40161133 C-1.05997317 25.17732268 -1.06680623 22.95303737 -1.07543945 20.72875977 C-1.08751298 17.53921691 -1.09322996 14.34971771 -1.09765625 11.16015625 C-1.10281754 10.15912369 -1.10797882 9.15809113 -1.11329651 8.12672424 C-1.11337204 7.20584518 -1.11344757 6.28496613 -1.11352539 5.33618164 C-1.115746 4.52121719 -1.11796661 3.70625275 -1.12025452 2.86659241 C-1 1 -1 1 0 0 Z " fill="#35383D" transform="translate(303,89)"/>
<path d="M0 0 C1 1 1 1 1 4 C-2.85756507 6.15305957 -5.55129785 7.39253254 -10 7 C-9.875 4.6875 -9.875 4.6875 -9 2 C-3.92647059 -1.30882353 -3.92647059 -1.30882353 0 0 Z " fill="#232429" transform="translate(188,26)"/>
<path d="M0 0 C3.63 0 7.26 0 11 0 C10.67 1.65 10.34 3.3 10 5 C6.7 5 3.4 5 0 5 C0 3.35 0 1.7 0 0 Z " fill="#232428" transform="translate(369,166)"/>
<path d="M0 0 C0.33 0 0.66 0 1 0 C1.03738281 1.26457031 1.07476562 2.52914062 1.11328125 3.83203125 C1.17893833 5.4922173 1.24538576 7.15237222 1.3125 8.8125 C1.33505859 9.64587891 1.35761719 10.47925781 1.38085938 11.33789062 C1.4340332 12.54155273 1.4340332 12.54155273 1.48828125 13.76953125 C1.51446533 14.50792236 1.54064941 15.24631348 1.56762695 16.00708008 C1.9095904 18.45069878 1.9095904 18.45069878 5 21 C5 14.73 5 8.46 5 2 C5.33 2 5.66 2 6 2 C6 8.6 6 15.2 6 22 C4.68 22.33 3.36 22.66 2 23 C0 21 0 21 -0.22705078 18.84521484 C-0.21657715 17.97590332 -0.20610352 17.1065918 -0.1953125 16.2109375 C-0.18886719 15.26992187 -0.18242188 14.32890625 -0.17578125 13.359375 C-0.15902344 12.37453125 -0.14226562 11.3896875 -0.125 10.375 C-0.11597656 9.38242188 -0.10695313 8.38984375 -0.09765625 7.3671875 C-0.07404116 4.91121866 -0.04110799 2.45572832 0 0 Z " fill="#606166" transform="translate(87,75)"/>
<path d="M0 0 C0.763125 0.20625 1.52625 0.4125 2.3125 0.625 C2 2.5 2 2.5 1.3125 4.625 C-1.6875 6.625 -1.6875 6.625 -3.875 6.25 C-4.473125 6.04375 -5.07125 5.8375 -5.6875 5.625 C-5.6875 4.305 -5.6875 2.985 -5.6875 1.625 C-2.6875 -0.375 -2.6875 -0.375 0 0 Z " fill="#303235" transform="translate(131.6875,52.375)"/>
<path d="M0 0 C-0.33 1.65 -0.66 3.3 -1 5 C-3.31 5 -5.62 5 -8 5 C-8 3.35 -8 1.7 -8 0 C-5.13822943 -1.43088528 -3.06624227 -0.59991697 0 0 Z " fill="#31333B" transform="translate(202,306)"/>
<path d="M0 0 C0.598125 0.20625 1.19625 0.4125 1.8125 0.625 C1.5 2.5 1.5 2.5 0.8125 4.625 C-2.1875 6.625 -2.1875 6.625 -6.1875 6.625 C-5.875 4.25 -5.875 4.25 -5.1875 1.625 C-2.1875 -0.375 -2.1875 -0.375 0 0 Z " fill="#2C2F35" transform="translate(268.1875,271.375)"/>
<path d="M0 0 C0.66 0.33 1.32 0.66 2 1 C-1.9419417 5.88049925 -6.11950075 10.0580583 -11 14 C-11.66 13.67 -12.32 13.34 -13 13 C-8.71 8.71 -4.42 4.42 0 0 Z " fill="#404045" transform="translate(339,135)"/>
<path d="M0 0 C0 3 0 3 -1.3203125 4.6484375 C-1.91585938 5.21820313 -2.51140625 5.78796875 -3.125 6.375 C-3.75792969 6.98214844 -4.39085937 7.58929688 -5.04296875 8.21484375 C-7.62690569 10.5718481 -10.27546652 12.8070828 -13 15 C-13.66 14.67 -14.32 14.34 -15 14 C-10.18808428 9.07559794 -5.29012124 4.40843437 0 0 Z " fill="#CCCDCF" transform="translate(342,142)"/>
<path d="M0 0 C0.33 0 0.66 0 1 0 C1 5.94 1 11.88 1 18 C1.99 17.67 2.98 17.34 4 17 C4.33 17.99 4.66 18.98 5 20 C3.35 19.67 1.7 19.34 0 19 C0 12.73 0 6.46 0 0 Z " fill="#46484D" transform="translate(302,117)"/>
<path d="M0 0 C0.66 0 1.32 0 2 0 C1.52433594 0.71929687 1.52433594 0.71929687 1.0390625 1.453125 C-0.47415767 5.16222106 -0.46691411 8.77809202 -0.625 12.75 C-0.66367188 13.54277344 -0.70234375 14.33554688 -0.7421875 15.15234375 C-0.836108 17.10119416 -0.91912822 19.05056451 -1 21 C-1.33 21 -1.66 21 -2 21 C-2.05791844 17.87507749 -2.09356746 14.75029234 -2.125 11.625 C-2.14175781 10.73554687 -2.15851563 9.84609375 -2.17578125 8.9296875 C-2.18222656 8.07890625 -2.18867187 7.228125 -2.1953125 6.3515625 C-2.20578613 5.56604004 -2.21625977 4.78051758 -2.22705078 3.97119141 C-2 2 -2 2 0 0 Z " fill="#ACADB2" transform="translate(95,75)"/>
<path d="M0 0 C2.475 0.99 2.475 0.99 5 2 C5 2.66 5 3.32 5 4 C4.34 4 3.68 4 3 4 C3 4.66 3 5.32 3 6 C1.68 6 0.36 6 -1 6 C-1.625 4.125 -1.625 4.125 -2 2 C-1.34 1.34 -0.68 0.68 0 0 Z " fill="#1A1B20" transform="translate(68,150)"/>
<path d="M0 0 C6.93 0 13.86 0 21 0 C21 0.33 21 0.66 21 1 C20.44014404 1.02505615 19.88028809 1.0501123 19.3034668 1.07592773 C16.76458695 1.19203745 14.22606447 1.3146958 11.6875 1.4375 C10.36588867 1.49647461 10.36588867 1.49647461 9.01757812 1.55664062 C7.74624023 1.61948242 7.74624023 1.61948242 6.44921875 1.68359375 C5.66893311 1.72025146 4.88864746 1.75690918 4.0847168 1.79467773 C1.80670899 1.94125263 1.80670899 1.94125263 -1 3 C-0.67 2.01 -0.34 1.02 0 0 Z " fill="#E6E7E9" transform="translate(297,147)"/>
<path d="M0 0 C1.32 0 2.64 0 4 0 C4 0.66 4 1.32 4 2 C4.66 2 5.32 2 6 2 C6 2.66 6 3.32 6 4 C4.02 4.33 2.04 4.66 0 5 C0 3.35 0 1.7 0 0 Z " fill="#1F2226" transform="translate(276,266)"/>
<path d="M0 0 C0.66 0.33 1.32 0.66 2 1 C1.360625 1.433125 0.72125 1.86625 0.0625 2.3125 C-2.26746003 3.91239177 -2.26746003 3.91239177 -3 7 C-4.32 6.67 -5.64 6.34 -7 6 C-6 3 -6 3 -3.0625 1.25 C-2.051875 0.8375 -1.04125 0.425 0 0 Z " fill="#A5A8AD" transform="translate(214,259)"/>
<path d="M0 0 C0.99 0.33 1.98 0.66 3 1 C2.49396008 3.16874252 2.00016187 4.99967627 1 7 C-1 6 -1 6 -1.75 4.0625 C-1.8325 3.381875 -1.915 2.70125 -2 2 C-1.34 1.34 -0.68 0.68 0 0 Z " fill="#282A30" transform="translate(307,60)"/>
</svg>
